<svg width="189" height="52" viewBox="0 0 189 52" fill="none" xmlns="http://www.w3.org/2000/svg">
<path fill-rule="evenodd" clip-rule="evenodd" d="M0 15.7925C0 12.3841 1.32746 9.17494 3.75009 6.75144C6.17271 4.32794 9.38074 3 12.7879 3H42.324V9.50692H12.7879C11.1175 9.50692 9.54668 10.1598 8.35196 11.355C7.15724 12.5501 6.50457 14.1326 6.50457 15.8036L6.46032 26.7259C6.16164 29.6253 3.97133 31.9602 1.15047 32.3918L0 32.5578V15.7925ZM0 45.2618V38.7549H29.5361C31.2065 38.7549 32.7884 38.091 33.972 36.9069C35.1667 35.7117 35.8194 34.1403 35.8194 32.4693L35.8305 22.1114C35.8305 19.0239 38.1314 16.3459 41.1735 15.8811L42.324 15.704V32.4693C42.324 35.8777 40.9854 39.0869 38.5739 41.5104C37.7063 42.3783 36.7381 43.1056 35.696 43.6818C35.8291 44.1277 35.9006 44.6001 35.9006 45.0891C35.9006 47.8013 33.702 50 30.9898 50C28.3354 50 26.1729 47.8941 26.0819 45.2618H16.2297C16.1387 47.8941 13.9762 50 11.3218 50C8.66743 50 6.50491 47.8941 6.41394 45.2618H0ZM25.0127 24.1806V32.5799H30.1124V16.0359H25.2893L21.1631 21.3587L17.0479 16.0359H12.2138V32.5799H17.3134V24.1806L21.1631 28.7731L25.0127 24.1806Z" fill="#E30613"/>
<path d="M70.9105 29.207H58.9966V32.1068C58.9966 36.8652 58.4077 39.6774 57.1719 41.6722H55.6465V48.4351H59.5083V45.3018H69.1437V48.4351H73.0248V41.6722H70.9105V29.207ZM66.7976 41.6819H61.642C62.3275 39.8136 63.0323 36.8263 63.0806 32.8464H66.7976V41.6819Z" fill="#E30613"/>
<path d="M83.0457 28.8828C78.1315 28.8828 74.6172 32.6584 74.6172 37.261C74.6172 41.8345 78.1315 45.6393 83.0457 45.6393C87.9502 45.6393 91.4645 41.8443 91.4645 37.261C91.4645 32.6584 87.9502 28.8828 83.0457 28.8828ZM83.0457 41.8151C80.6224 41.8151 78.8459 39.8884 78.8459 37.261C78.8459 34.6337 80.632 32.707 83.0457 32.707C85.4593 32.707 87.2455 34.6435 87.2455 37.261C87.2455 39.8884 85.469 41.8151 83.0457 41.8151Z" fill="#E30613"/>
<path d="M97.7404 37.261C97.7404 34.6143 99.7679 32.707 102.442 32.707C104.219 32.707 105.387 33.1644 106.526 33.8747V29.8072C105.319 29.2137 103.9 28.8828 102.394 28.8828C97.306 28.8828 93.5117 32.3081 93.5117 37.261C93.5117 42.2043 97.3446 45.6393 102.413 45.6393C103.987 45.6393 105.561 45.2695 106.796 44.6273V40.5306C105.541 41.4939 104.122 41.8151 102.597 41.8151C99.8162 41.8151 97.7404 39.9565 97.7404 37.261Z" fill="#E30613"/>
<path d="M122.141 29.207H108.466V32.8346H113.239V45.2595H117.339V32.8346H122.141V29.207Z" fill="#E30613"/>
<path d="M127.415 29.207L120.767 45.2595H125.062L126.391 41.8851H132.274L133.604 45.2595H137.966L131.317 29.207H127.415ZM127.683 38.5975L129.337 34.3361L130.992 38.5975H127.683Z" fill="#E30613"/>
<path d="M150.738 36.3749C151.508 36.0063 152.605 34.9975 152.605 33.2614C152.605 30.5067 150.421 29.207 147.649 29.207H139.893V45.2595H148.082C151.518 45.2595 153.77 43.4069 153.77 40.6523C153.76 38.1207 152.057 36.7046 150.738 36.3749ZM143.983 32.5533H147.033C148.034 32.5533 148.669 33.0771 148.669 33.9694C148.669 34.8133 148.034 35.3467 147.033 35.3467H143.983V32.5533ZM147.283 41.8162H143.983V38.402H147.283C148.515 38.402 149.285 39.0713 149.285 40.1188C149.285 41.1954 148.506 41.8162 147.283 41.8162Z" fill="#E30613"/>
<path d="M170.307 29.207H165.39L160.231 35.337V29.207H156.132V45.2595H160.231V38.1304L166.467 45.2595H171.443L164.139 36.5979L170.307 29.207Z" fill="#E30613"/>
<path d="M182.169 29.207H178.257L171.608 45.2595H175.903L177.233 41.8851H183.116L184.445 45.2595H188.807L182.169 29.207ZM178.524 38.5975L180.179 34.3361L181.834 38.5975H178.524Z" fill="#E30613"/>
<path d="M94.1641 19.0943V3.04297H104.301V6.7684H98.398V19.0943H94.1641Z" fill="#E30613"/>
<path d="M117.058 19.0943V12.8042H110.779V19.0943H106.556V3.04297H110.779V9.03458H117.058V3.04297H121.28V19.0943H117.058Z" fill="#E30613"/>
<path d="M145.81 19.0943V6.7684H140.88V3.04297H154.997V6.7684H150.044V19.0943H145.81Z" fill="#E30613"/>
<path d="M134.656 19.0943V9.94107L127.924 19.0943H124.397V3.04297H128.62V12.0967L135.231 3.04297H138.89V19.0943H134.656Z" fill="#E30613"/>
<path d="M69.8762 19.0943V9.55415L65.6644 14.595L61.4415 9.55415V19.0943H57.2188V3.04297H61.3863L65.6644 8.55924L69.9315 3.04297H74.1102V19.0943H69.8762Z" fill="#E30613"/>
<path d="M82.1258 13.4454H86.0613L84.0935 8.41549L82.1258 13.4454ZM88.2611 19.0942L87.3878 16.8833H80.8103L79.9259 19.0942H75.6699L82.17 3.04297H86.1386L92.5835 19.0942H88.2611Z" fill="#E30613"/>
</svg>
