<?xml version="1.0" encoding="utf-8"?>
<!-- Generator: Adobe Illustrator 23.0.1, SVG Export Plug-In . SVG Version: 6.00 Build 0)  -->
<svg version="1.1" id="Layer_1" xmlns="http://www.w3.org/2000/svg" xmlns:xlink="http://www.w3.org/1999/xlink" x="0px" y="0px"
	 viewBox="0 0 362.2 71.7" style="enable-background:new 0 0 362.2 71.7;" xml:space="preserve">
<style type="text/css">
	.st0{enable-background:new    ;}
	.st1{fill:#F0F0F2;}
</style>
<title>LOGO-TEXT</title>
<g class="st0">
	<path class="st1" d="M4.7,44.9c2.7,1.4,6.9,2.8,11.2,2.8c4.6,0,7.1-1.9,7.1-4.8c0-2.8-2.1-4.4-7.5-6.3C8.1,34,3.2,29.9,3.2,23.4
		C3.2,15.8,9.6,10,20.1,10c5,0,8.7,1.1,11.4,2.2l-2.2,8.1c-1.8-0.9-4.9-2.1-9.3-2.1s-6.5,2-6.5,4.3c0,2.8,2.5,4.1,8.2,6.3
		c7.9,2.9,11.5,7,11.5,13.3c0,7.5-5.7,13.9-18,13.9c-5.1,0-10.1-1.4-12.6-2.8L4.7,44.9z"/>
	<path class="st1" d="M44.6,55.2V10.8h11.7l9.2,16.3c2.6,4.7,5.3,10.2,7.3,15.2H73c-0.7-5.9-0.9-11.9-0.9-18.6V10.8h9.2v44.5H70.9
		l-9.5-17.2c-2.6-4.8-5.5-10.5-7.7-15.7l-0.2,0.1c0.3,5.9,0.4,12.1,0.4,19.4v13.4L44.6,55.2L44.6,55.2z"/>
</g>
<g class="st0">
	<path class="st1" d="M132.7,32.5c0,14.6-8.8,23.4-21.8,23.4c-13.2,0-20.9-10-20.9-22.6C89.9,20,98.4,10,111.5,10
		C125.2,10,132.7,20.3,132.7,32.5z M100.5,33.1c0,8.7,4.1,14.8,10.8,14.8c6.8,0,10.7-6.5,10.7-15.1c0-8-3.8-14.8-10.8-14.8
		C104.5,18,100.5,24.5,100.5,33.1z"/>
</g>
<g class="st0">
	<path class="st1" d="M149.7,55.2l-10.6-44.5h10.8l3.4,18.3c1,5.3,1.9,11.1,2.6,15.6h0.1c0.7-4.8,1.8-10.2,2.9-15.6l3.8-18.2h10.7
		l3.6,18.7c1,5.2,1.7,10,2.4,14.9h0.1c0.7-4.9,1.6-10.2,2.6-15.4l3.6-18.2h10.2l-11.5,44.5h-10.9l-3.8-19.1
		c-0.9-4.5-1.6-8.6-2.1-13.7h-0.1c-0.8,5-1.5,9.2-2.6,13.7l-4.2,19.1L149.7,55.2L149.7,55.2z"/>
</g>
<g class="st0">
	<path class="st1" d="M204.3,11.4c2.6-0.5,8-0.9,13-0.9c6.1,0,9.9,0.6,13.1,2.5c3.1,1.7,5.3,4.7,5.3,8.7s-2.3,7.7-7.3,9.5v0.1
		c5.1,1.4,8.8,5.2,8.8,11c0,4-1.8,7.2-4.6,9.4c-3.2,2.6-8.6,4-17.5,4c-4.9,0-8.6-0.3-10.9-0.7L204.3,11.4L204.3,11.4z M214.2,28.4
		h3.3c5.3,0,8.1-2.2,8.1-5.5c0-3.4-2.6-5.1-7.1-5.1c-2.2,0-3.4,0.1-4.3,0.3V28.4z M214.2,48.1c1,0.1,2.2,0.1,3.9,0.1
		c4.6,0,8.6-1.8,8.6-6.4c0-4.5-4-6.3-9-6.3h-3.4v12.6H214.2z"/>
</g>
<g class="st0">
	<path class="st1" d="M256.8,43.8l-3.2,11.4h-10.4l13.6-44.5H270l13.8,44.5H273l-3.4-11.4C269.6,43.8,256.8,43.8,256.8,43.8z
		 M268.1,36.3l-2.8-9.4c-0.8-2.6-1.6-5.9-2.2-8.6H263c-0.7,2.6-1.3,6-2,8.6l-2.6,9.4H268.1z"/>
	<path class="st1" d="M294.4,10.8h10.1v36h17.7v8.4h-27.8L294.4,10.8L294.4,10.8z"/>
	<path class="st1" d="M332.7,10.8h10.1v36h17.7v8.4h-27.8L332.7,10.8L332.7,10.8z"/>
</g>
</svg>
